<svg
    version="1.1"
    xmlns="http://www.w3.org/2000/svg"
    width="500"
    height="500"
  >
    <path
      d="M0 0 C0.93579895 -0.00100708 1.8715979 -0.00201416 2.83575439 -0.00305176 C17.75251457 0.00779378 32.20849167 0.71754749 46.9375 3.25 C48.19651123 3.45085205 48.19651123 3.45085205 49.48095703 3.65576172 C83.41439142 9.14176669 117.18702554 22.43984915 145.9375 41.25 C147.4225 42.20132813 147.4225 42.20132813 148.9375 43.171875 C172.5040163 58.51465905 194.82021451 77.88869063 211.9375 100.25 C213.11119141 101.71566406 213.11119141 101.71566406 214.30859375 103.2109375 C221.15758202 111.81421387 227.15043793 120.90654169 232.9375 130.25 C233.62585938 131.35601562 234.31421875 132.46203125 235.0234375 133.6015625 C254.51505562 166.29974636 265.56045744 203.60743395 269.9375 241.25 C270.07027344 242.38566406 270.20304688 243.52132812 270.33984375 244.69140625 C276.63312514 313.57266424 255.75055727 384.66819173 211.9375 438.25 C211.46699219 438.83475098 210.99648438 439.41950195 210.51171875 440.02197266 C198.60235292 454.76190959 185.04346871 468.78319648 169.9375 480.25 C168.96296875 481.02988281 167.9884375 481.80976563 166.984375 482.61328125 C112.08062542 526.36135721 40.61915759 544.74486341 -28.76220703 537.62548828 C-86.68862187 531.03495521 -139.15208889 506.49889399 -182.0625 467.25 C-183.07747377 466.33911758 -184.09312626 465.428991 -185.109375 464.51953125 C-190.81703751 459.38920777 -196.15441208 454.16081555 -201.0625 448.25 C-201.85785156 447.3425 -202.65320313 446.435 -203.47265625 445.5 C-216.72301081 430.33240721 -227.53531132 413.97475482 -237.0625 396.25 C-237.44776855 395.53602051 -237.83303711 394.82204102 -238.22998047 394.08642578 C-265.72288493 342.59790348 -274.52525023 281.68669327 -265.0625 224.25 C-264.91216309 223.29689941 -264.76182617 222.34379883 -264.60693359 221.36181641 C-256.42203454 171.34298883 -232.09035048 124.71012172 -198.07421875 87.48828125 C-196.35643682 85.57704039 -194.72786043 83.63210088 -193.125 81.625 C-192.444375 80.84125 -191.76375 80.0575 -191.0625 79.25 C-190.4025 79.25 -189.7425 79.25 -189.0625 79.25 C-188.5675 77.765 -188.5675 77.765 -188.0625 76.25 C-186.56640625 74.7421875 -186.56640625 74.7421875 -184.625 73.125 C-181.47431869 70.46032804 -178.40694867 67.73660294 -175.375 64.9375 C-135.49914738 29.07354719 -82.93917855 7.52764613 -30.0625 1.25 C-29.35988037 1.15428711 -28.65726074 1.05857422 -27.93334961 0.95996094 C-18.67610017 -0.17097397 -9.31108875 0.00693563 0 0 Z M-115.17285156 40.25 C-117.09400455 41.26667218 -119.02601738 42.25981599 -120.9609375 43.25 C-150.68453977 58.58976296 -178.66221789 81.70645112 -199.0625 108.25 C-199.84625 109.22839844 -200.63 110.20679688 -201.4375 111.21484375 C-219.22400617 133.54429961 -233.04665817 159.17568947 -242.0625 186.25 C-242.33497559 187.05920898 -242.60745117 187.86841797 -242.88818359 188.70214844 C-263.64593426 251.31282325 -259.34269589 319.70255575 -231.0625 379.25 C-230.75231934 379.91805664 -230.44213867 380.58611328 -230.12255859 381.27441406 C-214.2714423 415.32371835 -188.88458252 447.37460436 -159.0625 470.25 C-158.13179688 471.00925781 -157.20109375 471.76851563 -156.2421875 472.55078125 C-120.95415167 500.84438543 -78.37266824 517.08816282 -34.0625 524.25 C-33.24571777 524.38277344 -32.42893555 524.51554688 -31.58740234 524.65234375 C31.04148614 534.2730058 98.74721781 515.80569566 149.8125 479.125 C154.12233884 475.91842828 158.33104423 472.59430781 162.5 469.20703125 C165.71527791 466.62553408 169.01220714 464.15635974 172.3203125 461.6953125 C172.85398437 461.21835937 173.38765625 460.74140625 173.9375 460.25 C173.9375 459.59 173.9375 458.93 173.9375 458.25 C174.53079102 457.98123047 175.12408203 457.71246094 175.73535156 457.43554688 C177.94290033 456.24709268 179.40292882 455.04257611 181.171875 453.28125 C181.74550781 452.71019531 182.31914062 452.13914062 182.91015625 451.55078125 C183.49667969 450.95652344 184.08320313 450.36226563 184.6875 449.75 C185.28949219 449.15574219 185.89148438 448.56148438 186.51171875 447.94921875 C187.08019531 447.37816406 187.64867187 446.80710937 188.234375 446.21875 C189.01312988 445.43661133 189.01312988 445.43661133 189.80761719 444.63867188 C191.14787547 443.28981731 191.14787547 443.28981731 190.9375 441.25 C191.5975 441.25 192.2575 441.25 192.9375 441.25 C194.70821804 439.34473939 194.70821804 439.34473939 196.5625 436.875 C200.84082031 431.36446221 200.84082031 431.36446221 202.78515625 429.0625 C245.44919135 378.33668332 262.80318965 309.36702118 257.4375 244.17578125 C255.48198354 224.85563332 251.43688078 205.56107926 244.9375 187.25 C244.50630859 186.03231934 244.50630859 186.03231934 244.06640625 184.79003906 C240.03011664 173.53113577 235.5350955 162.68707706 229.92431641 152.12207031 C228.94083174 150.25632058 227.98930144 148.37701169 227.04296875 146.4921875 C222.13642124 136.84004534 216.30210896 127.9996434 209.9375 119.25 C209.29893066 118.37166504 209.29893066 118.37166504 208.64746094 117.47558594 C203.32795147 110.22624661 197.59956895 103.49826328 191.44921875 96.94921875 C189.41389148 94.76195414 187.47628948 92.54182197 185.5625 90.25 C144.44116186 43.07278784 78.29838236 16.71932118 17.14526367 12.42651367 C-28.31964752 9.92471515 -74.82601397 18.8320831 -115.17285156 40.25 Z "
      fill="#000"
      transform="translate(295.0625,23.75)"
    />
    <path
      d="M0 0 C10.58033176 4.77596524 22.39083377 5.45451413 33.48046875 1.91015625 C35.68107977 1.05229094 37.86833756 0.15870666 40.03515625 -0.78125 C43.94762944 -2.37422395 46.43986628 -3.3790796 50.56640625 -2.109375 C65.14835123 5.11215966 74.39013773 14.75091792 79.875 30.0625 C82.16230221 37.87584748 82.06579657 45.97821107 82.1875 54.0625 C82.20554687 54.97153076 82.22359375 55.88056152 82.2421875 56.81713867 C82.23491696 61.69430725 82.12446057 65.14100987 78.875 69.0625 C76.4791144 70.2604428 74.97810648 70.19864353 72.30229187 70.21640015 C71.33914062 70.22500061 70.37598938 70.23360107 69.38365173 70.24246216 C67.793218 70.24885208 67.793218 70.24885208 66.1706543 70.25537109 C65.05673309 70.26354858 63.94281189 70.27172607 62.7951355 70.28015137 C59.09650212 70.30503274 55.39790715 70.3215275 51.69921875 70.3359375 C49.8082141 70.34392302 49.8082141 70.34392302 47.87900734 70.35206985 C42.58180503 70.37330427 37.28461622 70.39243437 31.98738384 70.40369225 C24.39663871 70.41993067 16.80640552 70.45310563 9.21585339 70.51009309 C3.23469353 70.55346615 -2.74623329 70.56943756 -8.72756004 70.57582474 C-11.27172682 70.58255429 -13.81588565 70.59782014 -16.35994911 70.62171555 C-19.91785494 70.6532296 -23.47446274 70.65342388 -27.0324707 70.64599609 C-28.08668716 70.66240143 -29.14090363 70.67880676 -30.22706604 70.69570923 C-37.3657605 70.63459103 -37.3657605 70.63459103 -41.27983093 67.68531799 C-43.34282663 64.75287005 -43.74699643 63.36293798 -43.71875 59.81640625 C-43.7185083 58.8207666 -43.7182666 57.82512695 -43.71801758 56.79931641 C-43.68732178 55.75179199 -43.65662598 54.70426758 -43.625 53.625 C-43.60655029 52.54911621 -43.58810059 51.47323242 -43.5690918 50.36474609 C-43.13114777 34.33575353 -39.82731024 21.28251965 -28.58984375 9.390625 C-19.98982472 1.26762763 -11.45187923 -5.40106361 0 0 Z "
      fill="#000"
      transform="translate(170.125,217.9375)"
    />
    <path
      d="M0 0 C13.53191437 5.08646427 24.98730047 6.26325767 39 2 C40.62067335 1.24269906 42.22763914 0.45464021 43.8125 -0.375 C47.12976054 -1.96924721 48.95465048 -2.17456991 52.5 -1.125 C59.6205622 1.86264848 65.83322268 6.27465216 71 12 C71.48082031 12.48855469 71.96164062 12.97710937 72.45703125 13.48046875 C82.90352378 24.61457851 84.34856847 38.23362449 84.3125 52.8125 C84.32822841 54.14779302 84.3445003 55.48307976 84.36132812 56.81835938 C84.36197266 58.08099609 84.36261719 59.34363281 84.36328125 60.64453125 C84.36626221 61.79284424 84.36924316 62.94115723 84.37231445 64.12426758 C84 67 84 67 82.60229492 68.8347168 C79.74624497 70.91180448 77.94162564 71.12671076 74.45852661 71.13371277 C73.02425323 71.14011024 73.02425323 71.14011024 71.56100464 71.14663696 C69.98224045 71.14595718 69.98224045 71.14595718 68.37158203 71.14526367 C67.26580811 71.14862228 66.16003418 71.1519809 65.02075195 71.15544128 C61.34976084 71.16497344 57.67881523 71.16689556 54.0078125 71.16796875 C51.4643451 71.17117985 48.92087789 71.1745438 46.37741089 71.17805481 C41.0391998 71.18405182 35.70100578 71.18593684 30.36279297 71.18530273 C24.19277388 71.18470211 18.02284227 71.19525004 11.85284531 71.2110464 C5.91868795 71.22569777 -0.01544268 71.22929079 -5.94961929 71.22869301 C-8.47504153 71.22987545 -11.00046436 71.23431194 -13.52587509 71.24202538 C-17.05492206 71.25179435 -20.58374256 71.24895931 -24.11279297 71.24291992 C-25.68548447 71.25134918 -25.68548447 71.25134918 -27.28994751 71.25994873 C-28.25176941 71.25575424 -29.21359131 71.25155975 -30.20455933 71.24723816 C-31.45614491 71.24805531 -31.45614491 71.24805531 -32.73301506 71.24888897 C-35.25583583 70.97191216 -36.8584455 70.34795607 -39 69 C-41.28678562 64.42642876 -40.23034528 58.08182428 -40.25 53.0625 C-40.270625 51.78052734 -40.29125 50.49855469 -40.3125 49.17773438 C-40.3717109 34.66366192 -36.7865451 21.54435851 -26.75390625 10.62109375 C-19.38458928 3.80980969 -10.0580682 -3.97733495 0 0 Z "
      fill="#000"
      transform="translate(385,217)"
    />
    <path
      d="M0 0 C13.53191437 5.08646427 24.98730047 6.26325767 39 2 C40.62067335 1.24269906 42.22763914 0.45464021 43.8125 -0.375 C47.07399544 -1.93066725 48.88603583 -2.20280703 52.375 -1.1875 C65.75346173 4.48608848 74.41512363 12.96264001 80.7734375 25.91015625 C84.03248264 34.12004384 84.31559067 41.46241488 84.26074219 50.25610352 C84.24993301 52.32532441 84.26072955 54.39369461 84.2734375 56.46289062 C84.27085937 57.77064453 84.26828125 59.07839844 84.265625 60.42578125 C84.26336914 61.61598877 84.26111328 62.80619629 84.25878906 64.0324707 C84 67 84 67 82 70 C79.13538939 70.9548702 77.32011951 71.13396036 74.34500122 71.15390015 C72.91083359 71.16680084 72.91083359 71.16680084 71.44769287 71.17996216 C69.87667816 71.18635208 69.87667816 71.18635208 68.27392578 71.19287109 C67.16961212 71.20104858 66.06529846 71.20922607 64.92752075 71.21765137 C61.26679021 71.24250011 57.60609837 71.25901802 53.9453125 71.2734375 C52.0722323 71.28142302 52.0722323 71.28142302 50.1613121 71.28956985 C44.91468453 71.31079533 39.66806278 71.32992619 34.42140388 71.34119225 C26.906814 71.35743591 19.39274074 71.39063345 11.87834561 71.44759309 C5.95435219 71.49096482 0.03047412 71.50693725 -5.89368057 71.51332474 C-8.41272794 71.52005334 -10.93176731 71.53531676 -13.4507103 71.55921555 C-16.97258846 71.59072972 -20.49315538 71.59092407 -24.01513672 71.58349609 C-25.0584314 71.59990143 -26.10172607 71.61630676 -27.17663574 71.63320923 C-31.94727656 71.5919465 -34.23957263 71.56957416 -38.14810181 68.64201355 C-40.3514476 65.49860672 -40.62002656 63.83953479 -40.59375 60.02734375 C-40.58988281 58.30547852 -40.58988281 58.30547852 -40.5859375 56.54882812 C-40.55757812 55.35708984 -40.52921875 54.16535156 -40.5 52.9375 C-40.50257813 51.77283203 -40.50515625 50.60816406 -40.5078125 49.40820312 C-40.31572372 32.16823528 -35.22428114 20.05992106 -23 8 C-16.18799305 1.91738577 -9.06381185 -3.60479429 0 0 Z "
      fill="#000"
      transform="translate(276,393)"
    />
    <path
      d="M0 0 C9.04007843 6.84763416 14.75670728 16.48838625 16.3515625 27.78125 C17.23460004 42.67877799 17.16283895 56.70965417 7.3515625 68.78125 C0.13870218 76.69780401 -8.21008787 82.47533025 -19.15234375 83.203125 C-20.73395354 83.24797492 -22.31620818 83.27407805 -23.8984375 83.28125 C-24.64246826 83.28737305 -25.38649902 83.29349609 -26.15307617 83.29980469 C-36.00431989 83.07663381 -45.4791322 78.53701088 -52.69921875 71.89453125 C-64.23999855 59.31582265 -64.46567303 44.82503357 -63.84375 28.54101562 C-63.0623967 17.50049354 -57.72421699 9.40520823 -49.7734375 2.03125 C-35.22390196 -10.11180343 -15.75462002 -10.20299201 0 0 Z "
      fill="#000"
      transform="translate(430.6484375,129.21875)"
    />
    <path
      d="M0 0 C9.14847531 7.87506117 15.30469726 17.0035693 16.26904297 29.3269043 C16.36638932 32.24149446 16.38454232 35.14636801 16.375 38.0625 C16.39111328 39.03960937 16.40722656 40.01671875 16.42382812 41.0234375 C16.43060127 51.21024832 14.02033599 59.42167349 8.0625 67.6875 C7.340625 68.71875 6.61875 69.75 5.875 70.8125 C0.46030581 77.06153387 -8.89516779 81.78954902 -17.0715332 83.00463867 C-19.28670478 83.15991822 -21.46705042 83.20624811 -23.6875 83.1875 C-24.4717334 83.18250488 -25.2559668 83.17750977 -26.06396484 83.17236328 C-36.26845999 82.86896943 -45.61513961 78.86752509 -52.9375 71.6875 C-63.45517127 59.80922649 -64.95627904 46.2074723 -64.11767578 30.96533203 C-63.21523135 19.55638002 -58.94174272 10.14275785 -50.5625 2.3125 C-36.27239387 -9.54016327 -15.33273572 -11.44157085 0 0 Z "
      fill="#000"
      transform="translate(321.9375,305.3125)"
    />
    <path
      d="M0 0 C8.11694816 6.39445626 12.40787013 14.40889845 15.0625 24.3125 C15.57132884 28.68492121 15.57966707 32.97789165 15.5 37.375 C15.50708984 38.48166016 15.51417969 39.58832031 15.52148438 40.72851562 C15.42458541 53.34774283 12.18703415 62.96729444 3.296875 72.1328125 C-6.82589053 81.20682305 -17.71325079 83.21104852 -30.89599609 82.5078125 C-40.99770742 81.54137277 -48.7889228 75.7734983 -55.625 68.6875 C-63.23266975 59.33696121 -64.72737248 49.50577165 -64.5 37.75 C-64.51095703 36.51314453 -64.52191406 35.27628906 -64.53320312 34.00195312 C-64.43133639 21.15995287 -61.04421845 11.49980888 -51.9375 2.3125 C-36.67731026 -10.31111245 -16.38275218 -11.13671484 0 0 Z "
      fill="#000"
      transform="translate(213.9375,129.6875)"
    />
    <path
      d="M0 0 C7.26 0 14.52 0 22 0 C22.23074219 1.55847656 22.46148437 3.11695313 22.69921875 4.72265625 C28.13523545 40.15322854 42.85515298 68.19965685 71 91 C75.19050891 93.8840887 79.44427579 96.72213789 84 99 C82.31338027 103.54089927 79.99607926 107.40627318 77.4375 111.5 C76.03242942 113.94360101 74.98016869 116.36108429 74 119 C47.00077521 109.23118958 25.47844994 80.68004044 13 56 C4.80421532 38.4729578 0 19.36868754 0 0 Z "
      fill="#000"
      transform="translate(155,299)"
    />
    <path
      d="M0 0 C0.87454834 0.00523682 1.74909668 0.01047363 2.65014648 0.01586914 C3.59438477 0.0190918 4.53862305 0.02231445 5.51147461 0.02563477 C6.50469727 0.03401367 7.49791992 0.04239258 8.52124023 0.05102539 C9.51833008 0.05553711 10.51541992 0.06004883 11.54272461 0.06469727 C14.01478872 0.07652532 16.48673541 0.0930069 18.95874023 0.11352539 C20.78356886 31.63264708 5.67884978 63.41562663 -14.04125977 87.11352539 C-14.47825195 87.64155762 -14.91524414 88.16958984 -15.36547852 88.71362305 C-21.24871633 95.72598996 -27.77532762 101.57274473 -35.04125977 107.11352539 C-35.98485352 107.83797852 -36.92844727 108.56243164 -37.90063477 109.30883789 C-43.08477262 113.18978087 -48.14048494 116.44147641 -54.04125977 119.11352539 C-54.51176758 118.22149414 -54.98227539 117.32946289 -55.46704102 116.41040039 C-56.09577004 115.22801447 -56.72468619 114.04572804 -57.35375977 112.86352539 C-57.96864258 111.70336914 -58.58352539 110.54321289 -59.21704102 109.34790039 C-60.87784717 106.18195021 -60.87784717 106.18195021 -62.83422852 103.94165039 C-64.04125977 102.11352539 -64.04125977 102.11352539 -64.11157227 100.10571289 C-62.49019068 97.08781285 -59.80336618 95.87889154 -56.91625977 94.23852539 C-50.94882572 90.64588652 -45.8515243 86.51965402 -40.79125977 81.73852539 C-40.14785645 81.13153809 -39.50445312 80.52455078 -38.84155273 79.89916992 C-36.22107962 77.37875252 -34.07115853 75.15837354 -32.04125977 72.11352539 C-31.38125977 72.11352539 -30.72125977 72.11352539 -30.04125977 72.11352539 C-29.80665039 71.59016602 -29.57204102 71.06680664 -29.33032227 70.52758789 C-27.97380384 67.98719884 -26.37742242 65.69311095 -24.71582031 63.34472656 C-12.28933483 45.59560594 -5.5130637 25.56177139 -3.40063477 4.07836914 C-2.92601199 0.1627312 -2.92601199 0.1627312 0 0 Z "
      fill="#000"
      transform="translate(422.041259765625,298.886474609375)"
    />
    <path
      d="M0 0 C0.05534912 0.57443848 0.11069824 1.14887695 0.16772461 1.74072266 C0.4221876 4.36902619 0.67981811 6.99701018 0.9375 9.625 C1.02451172 10.52863281 1.11152344 11.43226563 1.20117188 12.36328125 C1.65251386 16.94356654 2.1647042 21.4698372 3 26 C-1.29937077 24.64230397 -5.3352455 22.9901004 -9.4375 21.125 C-16.75856839 17.91130309 -24.19381167 15.75344187 -32 14 C-32.98742187 13.773125 -33.97484375 13.54625 -34.9921875 13.3125 C-60.66120513 8.41019425 -89.31274671 12.45391224 -112.25 25.1171875 C-114 26 -114 26 -116 26 C-115.34 17.75 -114.68 9.5 -114 1 C-77.34098252 -15.29289666 -37.12782386 -14.51149872 0 0 Z "
      fill="#000"
      transform="translate(355,162)"
    />
  </svg>